<?xml version="1.0" encoding="utf-8"?>
<!-- Generator: Adobe Illustrator 14.0.0, SVG Export Plug-In . SVG Version: 6.00 Build 43363)  -->
<!DOCTYPE svg PUBLIC "-//W3C//DTD SVG 1.1//EN" "http://www.w3.org/Graphics/SVG/1.1/DTD/svg11.dtd">
<svg version="1.1" id="Layer_1" xmlns="http://www.w3.org/2000/svg" xmlns:xlink="http://www.w3.org/1999/xlink" x="0px" y="0px"
	 width="283.46px" height="283.46px" viewBox="0 0 283.46 283.46" enable-background="new 0 0 283.46 283.46" xml:space="preserve">
<rect x="28.346" y="28.342" fill="none" stroke="#000000" stroke-width="0.5" width="226.772" height="226.771"/>
<g>
	<path fill="none" stroke="#000000" stroke-width="0.5" d="M39.497,240.113c0.408,0,0.6,0.287,0.6,0.6v3.466
		c0.372,0,0.66,0.132,0.875,0.336s0.324,0.503,0.324,0.876v2.854c0,0.732-0.456,1.199-1.199,1.199H36.57
		c-0.744,0-1.199-0.467-1.199-1.199v-2.854c0-0.373,0.108-0.672,0.324-0.876s0.503-0.336,0.875-0.336v-3.466
		c0-0.312,0.192-0.6,0.6-0.6H39.497z M40.096,248.244v-2.866H36.57v2.866H40.096z M38.897,244.179v-2.866H37.77v2.866H38.897z"/>
	<path fill="none" stroke="#000000" stroke-width="0.5" d="M46.193,246.218l-1.763-2.087c-0.132-0.168-0.276-0.324-0.276-0.54
		c0-0.323,0.252-0.611,0.576-0.611c0.348,0,0.576,0.36,0.78,0.611l1.463,1.8l1.463-1.8c0.204-0.251,0.432-0.611,0.78-0.611
		c0.324,0,0.576,0.288,0.576,0.611c0,0.216-0.144,0.372-0.276,0.54l-1.763,2.087l1.763,2.087c0.132,0.168,0.276,0.324,0.276,0.539
		c0,0.324-0.252,0.6-0.576,0.6c-0.348,0-0.576-0.348-0.78-0.6l-1.463-1.799l-1.463,1.799c-0.204,0.252-0.432,0.6-0.78,0.6
		c-0.324,0-0.576-0.275-0.576-0.6c0-0.215,0.144-0.371,0.276-0.539L46.193,246.218z"/>
	<path fill="none" stroke="#000000" stroke-width="0.5" d="M56.776,240.113c0.408,0,0.6,0.287,0.6,0.6v3.466
		c0.372,0,0.66,0.132,0.875,0.336s0.324,0.503,0.324,0.876v2.854c0,0.732-0.456,1.199-1.199,1.199H53.85
		c-0.744,0-1.199-0.467-1.199-1.199v-2.854c0-0.373,0.108-0.672,0.324-0.876s0.503-0.336,0.875-0.336v-3.466
		c0-0.312,0.192-0.6,0.6-0.6H56.776z M57.376,248.244v-2.866H53.85v2.866H57.376z M56.177,244.179v-2.866h-1.127v2.866H56.177z"/>
	<path fill="none" stroke="#000000" stroke-width="0.5" d="M61.434,245.654c0-0.708,0.132-1.056,0.684-1.512l0.852-0.707
		c0.54-0.444,0.816-0.456,1.487-0.456h1.823c0.384,0,0.792,0.084,0.792,0.575c0,0.504-0.456,0.576-0.792,0.576h-2.027
		c-0.228,0-0.456,0.119-0.66,0.287l-0.696,0.588c-0.18,0.145-0.312,0.264-0.312,0.492v1.428c0,0.228,0.132,0.348,0.312,0.491
		l0.696,0.588c0.204,0.167,0.432,0.288,0.66,0.288h2.027c0.335,0,0.792,0.071,0.792,0.575c0,0.491-0.408,0.575-0.792,0.575h-1.823
		c-0.671,0-0.947-0.012-1.487-0.455l-0.852-0.708c-0.551-0.456-0.684-0.804-0.684-1.511V245.654z"/>
	<path fill="none" stroke="#000000" stroke-width="0.5" d="M73.469,244.91v3.742c0,0.396-0.084,0.791-0.576,0.791
		c-0.492,0-0.575-0.396-0.575-0.791v-3.85c0-0.192,0.024-0.553-0.276-0.553c-0.132,0-0.216,0.108-0.312,0.192l-0.504,0.468v3.742
		c0,0.396-0.084,0.791-0.576,0.791s-0.576-0.396-0.576-0.791v-4.857c0-0.408,0.108-0.815,0.6-0.815c0.288,0,0.48,0.192,0.552,0.456
		l0.096-0.072c0.3-0.229,0.479-0.384,0.875-0.384c0.444,0,0.792,0.216,1.055,0.575l0.096-0.096c0.36-0.359,0.504-0.479,1.007-0.479
		c0.384,0,0.731,0.168,0.959,0.468c0.288,0.371,0.264,0.707,0.276,1.151l0.12,3.981c0.012,0.408-0.048,0.863-0.564,0.863
		c-0.468,0-0.563-0.396-0.576-0.779l-0.12-3.802c-0.012-0.204,0.048-0.612-0.264-0.612c-0.168,0-0.384,0.289-0.479,0.396
		L73.469,244.91z"/>
</g>
</svg>
