<?xml version="1.0" encoding="utf-8"?>
<!-- Generator: Adobe Illustrator 15.0.0, SVG Export Plug-In . SVG Version: 6.00 Build 0)  -->
<!DOCTYPE svg PUBLIC "-//W3C//DTD SVG 1.1//EN" "http://www.w3.org/Graphics/SVG/1.1/DTD/svg11.dtd">
<svg version="1.1" id="Layer_1" xmlns="http://www.w3.org/2000/svg" xmlns:xlink="http://www.w3.org/1999/xlink" x="0px" y="0px"
	 width="400px" height="200px" viewBox="0 0 400 200" enable-background="new 0 0 400 200" xml:space="preserve">
<polygon points="105.431,53.064 110.773,10.697 110.762,53.399 121.372,12.037 116.009,54.401 131.719,14.693 121.089,56.051 
	141.652,18.626 125.922,58.325 151.014,23.772 130.433,61.187 159.656,30.051 134.548,64.592 167.443,37.364 138.204,68.486 
	174.253,45.596 141.344,72.808 179.978,54.616 143.917,77.488 184.526,64.283 145.884,82.455 187.828,74.443 147.212,87.628 
	189.83,84.937 147.882,92.928 190.5,95.599 147.882,98.27 189.83,106.261 147.212,103.568 187.828,116.755 145.884,108.742 
	184.526,126.915 143.917,113.709 179.978,136.581 141.344,118.39 174.253,145.601 138.204,122.711 167.443,153.833 134.548,126.604 
	159.656,161.146 130.433,130.01 151.014,167.425 125.922,132.872 141.652,172.571 121.089,135.146 131.719,176.504 116.009,136.797 
	121.372,179.161 110.762,137.798 110.773,180.5 105.431,138.133 100.089,180.5 100.1,137.798 89.491,179.161 94.853,136.797 
	79.144,176.504 89.773,135.146 69.21,172.571 84.939,132.872 59.848,167.425 80.43,130.01 51.206,161.146 76.314,126.604 
	43.418,153.833 72.658,122.711 36.609,145.601 69.518,118.39 30.884,136.581 66.945,113.709 26.336,126.915 64.979,108.742 
	23.034,116.755 63.65,103.568 21.032,106.261 62.98,98.27 20.362,95.599 62.98,92.928 21.032,84.937 63.65,87.628 23.034,74.443 
	64.979,82.455 26.336,64.283 66.945,77.488 30.884,54.616 69.518,72.808 36.609,45.596 72.658,68.486 43.418,37.364 76.314,64.592 
	51.206,30.051 80.43,61.187 59.848,23.772 84.939,58.325 69.21,18.626 89.773,56.051 79.144,14.693 94.853,54.401 89.491,12.037 
	100.1,53.399 100.089,10.697 "/>
</svg>
