<?xml version="1.0" encoding="utf-8"?>
<!-- Generator: Adobe Illustrator 16.0.0, SVG Export Plug-In . SVG Version: 6.00 Build 0)  -->
<!DOCTYPE svg PUBLIC "-//W3C//DTD SVG 1.1//EN" "http://www.w3.org/Graphics/SVG/1.1/DTD/svg11.dtd">
<svg version="1.1" id="Layer_1" xmlns="http://www.w3.org/2000/svg" xmlns:xlink="http://www.w3.org/1999/xlink" x="0px" y="0px"
	 width="4320px" height="1800px" viewBox="0 0 4320 1800" enable-background="new 0 0 4320 1800" xml:space="preserve">
<g>
	<path d="M171.527,958.078V170.079h91V531.86c25.984-42.141,57.328-75.141,94.031-99c36.703-23.844,73.406-35.781,110.125-35.781
		c30.859,0,59.031,7.906,84.531,23.703c25.5,15.812,43.281,34.953,53.359,57.422c8.125,17.266,13.641,35.594,16.562,54.969
		c2.922,19.391,4.391,59.375,4.391,119.969v304.937h-91v-315.89c0-52.391-2.516-86.969-7.547-103.734s-14.266-30.516-27.734-41.266
		c-13.469-10.734-28.141-16.109-44.031-16.109c-31.797,0-65.938,15.141-102.438,45.406c-36.5,30.281-66.578,68.188-90.25,113.75
		v317.843H171.527z"/>
	<path d="M1224.625,921.438c-72.625,34.438-141.328,51.641-206.141,51.641c-49.172,0-93.141-12.203-131.891-36.609
		s-69.766-59.296-93.047-104.702c-23.281-45.391-34.922-93.969-34.922-145.719c0-49.781,11.062-97.609,33.219-143.5
		c22.156-45.875,53.094-81.594,92.844-107.141s84.047-38.328,132.922-38.328c64.828,0,116.875,23.141,156.125,69.406
		s58.891,117.609,58.891,214.047v19.547h-376c0,37.719,7.891,72.172,23.672,103.375c15.781,31.219,36.516,54.625,62.219,70.218
		c25.703,15.609,54.984,23.406,87.859,23.406c58.562,0,123.312-19.5,194.25-58.514V921.438z M861.984,632.079h271.641v-13.172
		c0-44.531-10.891-79.969-32.672-106.312s-50.891-39.516-87.297-39.516c-36.75,0-68.531,13.422-95.344,40.234
		C891.484,540.142,872.703,579.735,861.984,632.079z"/>
	<path d="M1517.722,958.078V246.079h-163v-76h254v712h170v76H1517.722z"/>
	<path d="M2117.82,958.078V246.079h-163v-76h254v712h170v76H2117.82z"/>
	<path d="M2796.168,973.078c-77.969,0-140.328-27.266-187.094-81.828c-46.781-54.562-70.156-123.359-70.156-206.421
		c0-83.047,23.375-151.766,70.156-206.156c46.766-54.391,109.125-81.594,187.094-81.594c77.625,0,139.812,27.203,186.594,81.594
		c46.766,54.391,70.156,123.109,70.156,206.156c0,83.062-23.391,151.86-70.156,206.421
		C2935.98,945.812,2873.793,973.078,2796.168,973.078z M2796.168,897.078c48.203,0,86.547-18.859,115.031-56.592
		c28.469-37.735,42.719-89.625,42.719-155.657c0-65.688-14.25-117.406-42.719-155.141c-28.484-37.734-66.828-56.609-115.031-56.609
		c-48.547,0-87.062,18.875-115.531,56.609c-28.484,37.734-42.719,89.453-42.719,155.141c0,66.031,14.234,117.922,42.719,155.657
		C2709.105,878.219,2747.621,897.078,2796.168,897.078z"/>
</g>
</svg>
