<?xml version="1.0" encoding="utf-8"?>
<!-- Generator: Adobe Illustrator 15.0.0, SVG Export Plug-In . SVG Version: 6.00 Build 0)  -->
<!DOCTYPE svg PUBLIC "-//W3C//DTD SVG 1.1//EN" "http://www.w3.org/Graphics/SVG/1.1/DTD/svg11.dtd">
<svg version="1.1" id="Layer_1" xmlns="http://www.w3.org/2000/svg" xmlns:xlink="http://www.w3.org/1999/xlink" x="0px" y="0px"
	 width="400px" height="200px" viewBox="0 0 400 200" enable-background="new 0 0 400 200" xml:space="preserve">
<g>
	<path d="M11.408,98.785V51.043h5.502v21.919c1.578-2.544,3.48-4.536,5.709-5.975c2.229-1.44,4.457-2.16,6.685-2.16
		c1.874,0,3.584,0.479,5.132,1.435c1.548,0.957,2.627,2.115,3.239,3.476c0.493,1.045,0.828,2.154,1.006,3.328
		c0.177,1.173,0.266,3.594,0.266,7.262v18.458h-5.502V79.647c0-3.175-0.153-5.27-0.458-6.286s-0.868-1.849-1.686-2.5
		s-1.71-0.976-2.677-0.976c-1.933,0-4.008,0.917-6.227,2.751c-2.219,1.834-4.048,4.131-5.487,6.892v19.256H11.408z"/>
	<path d="M75.242,96.586c-4.397,2.078-8.559,3.116-12.483,3.116c-2.978,0-5.64-0.739-7.987-2.216
		c-2.347-1.479-4.225-3.592-5.635-6.34c-1.41-2.749-2.115-5.689-2.115-8.822c0-3.015,0.671-5.911,2.012-8.689
		c1.341-2.778,3.214-4.94,5.62-6.488c2.406-1.545,5.088-2.32,8.046-2.32c3.924,0,7.075,1.398,9.451,4.193
		c2.376,2.798,3.564,7.109,3.564,12.936v1.181H52.939c0,2.292,0.478,4.388,1.435,6.286c0.956,1.898,2.213,3.323,3.771,4.272
		c1.558,0.949,3.333,1.422,5.324,1.422c3.55,0,7.474-1.186,11.773-3.559V96.586z M53.264,79.026H69.74v-0.796
		c0-2.694-0.661-4.836-1.982-6.429c-1.321-1.592-3.086-2.389-5.295-2.389c-2.228,0-4.156,0.811-5.783,2.433
		S53.915,75.861,53.264,79.026z"/>
	<path d="M92.99,98.785V55.628h-9.88v-4.585h15.382V94.2h10.323v4.585H92.99z"/>
	<path d="M129.344,98.785V55.628h-9.88v-4.585h15.382V94.2h10.323v4.585H129.344z"/>
	<path d="M170.417,99.702c-4.728,0-8.512-1.651-11.349-4.955s-4.254-7.469-4.254-12.498c0-5.028,1.417-9.189,4.254-12.483
		c2.837-3.293,6.621-4.94,11.349-4.94c4.708,0,8.482,1.647,11.319,4.94c2.834,3.293,4.254,7.455,4.254,12.483
		c0,5.029-1.42,9.194-4.254,12.498C178.898,98.051,175.125,99.702,170.417,99.702z M170.417,95.117c2.933,0,5.268-1.144,7-3.431
		c1.73-2.288,2.598-5.433,2.598-9.436c0-3.983-0.868-7.119-2.598-9.406c-1.733-2.288-4.067-3.432-7-3.432
		c-2.953,0-5.297,1.144-7.03,3.432c-1.733,2.287-2.598,5.423-2.598,9.406c0,4.003,0.865,7.148,2.598,9.436
		S167.463,95.117,170.417,95.117z"/>
</g>
</svg>
